<svg width="1686" height="1155" viewBox="0 0 1686 1155" fill="none" xmlns="http://www.w3.org/2000/svg">
<path fill-rule="evenodd" clip-rule="evenodd" d="M141.254 624.734C142.08 623.16 143.979 622.435 145.664 623.109C145.808 623.167 145.947 623.233 146.078 623.307L280.838 572.348C280.85 572.272 280.866 572.196 280.884 572.12C280.896 572.07 280.909 572.02 280.923 571.969L147.931 518.787C147.105 520.36 145.206 521.085 143.52 520.411C142.193 519.881 141.369 518.632 141.315 517.291L7.23037 567.984C8.20323 568.863 8.62663 570.242 8.25464 571.548L141.254 624.734ZM7.98362 572.226L140.983 625.411C140.496 627.12 141.371 628.955 143.057 629.629C144.743 630.303 146.642 629.578 147.468 628.005L280.907 681.366C280.421 683.075 281.296 684.91 282.982 685.584C284.668 686.258 286.567 685.533 287.392 683.96L419.938 736.963C419.451 738.672 420.326 740.507 422.012 741.181C423.698 741.855 425.597 741.13 426.422 739.557L558.968 792.561C558.481 794.27 559.356 796.104 561.042 796.778C562.728 797.452 564.627 796.727 565.453 795.154L697.991 848.155C697.504 849.864 698.379 851.698 700.065 852.373C701.751 853.047 703.65 852.322 704.476 850.748L837.021 903.752C836.534 905.461 837.409 907.296 839.095 907.97C840.896 908.69 842.939 907.814 843.659 906.014C844.081 904.957 843.954 903.816 843.413 902.909L977.02 852.395C977.338 853.334 978.049 854.133 979.042 854.53C980.843 855.25 982.886 854.375 983.606 852.574C983.962 851.683 983.928 850.733 983.584 849.913L1117.15 799.414C1117.52 800.154 1118.16 800.766 1118.99 801.098C1120.79 801.818 1122.83 800.942 1123.55 799.142C1123.84 798.414 1123.87 797.647 1123.69 796.944L1257.35 746.407C1257.73 746.95 1258.27 747.392 1258.93 747.656C1260.73 748.376 1262.77 747.5 1263.49 745.7C1263.71 745.141 1263.78 744.558 1263.72 744L1397.62 693.374C1397.96 693.734 1398.38 694.028 1398.87 694.223C1400.67 694.943 1402.71 694.068 1403.43 692.267C1403.59 691.878 1403.67 691.478 1403.68 691.082L1538.16 640.241C1538.48 640.553 1538.86 640.809 1539.3 640.986C1541.1 641.706 1543.15 640.83 1543.87 639.03C1544 638.688 1544.08 638.338 1544.11 637.99L1678.7 587.102C1679 587.367 1679.35 587.586 1679.74 587.742C1681.54 588.462 1683.58 587.586 1684.3 585.786C1685.02 583.985 1684.15 581.942 1682.35 581.222C1680.66 580.548 1678.76 581.273 1677.94 582.846L1545.39 529.843C1545.88 528.134 1545 526.299 1543.32 525.625C1541.63 524.951 1539.73 525.676 1538.91 527.249L1406.36 474.245C1406.85 472.537 1405.97 470.702 1404.29 470.028C1402.6 469.354 1400.7 470.079 1399.88 471.652L1267.34 418.651C1267.82 416.942 1266.95 415.108 1265.26 414.433C1263.58 413.759 1261.68 414.484 1260.85 416.058L1128.31 363.054C1128.79 361.345 1127.92 359.51 1126.23 358.836C1124.55 358.162 1122.65 358.887 1121.82 360.461L988.376 307.096C988.862 305.387 987.987 303.553 986.301 302.879C984.615 302.204 982.716 302.93 981.89 304.503L848.898 251.32C849.385 249.611 848.51 247.777 846.824 247.103C845.023 246.383 842.98 247.259 842.26 249.059C841.932 249.881 841.936 250.753 842.208 251.527L708.284 302.16C707.924 301.363 707.266 300.698 706.389 300.347C704.588 299.627 702.545 300.503 701.825 302.303C701.515 303.078 701.501 303.899 701.729 304.639L567.799 355.274C567.428 354.533 566.794 353.919 565.963 353.587C564.163 352.867 562.12 353.743 561.4 355.543C561.108 356.272 561.078 357.04 561.265 357.744L427.601 408.279C427.222 407.731 426.684 407.285 426.019 407.019C424.218 406.299 422.175 407.175 421.455 408.976C421.23 409.539 421.161 410.126 421.228 410.689L287.327 461.313C286.986 460.951 286.564 460.655 286.072 460.459C284.271 459.739 282.228 460.615 281.508 462.415C281.352 462.806 281.271 463.209 281.258 463.608L146.976 514.376C146.723 514.18 146.439 514.016 146.127 513.891C144.327 513.171 142.284 514.047 141.564 515.848C141.479 516.06 141.416 516.277 141.374 516.494L6.51019 567.482C6.40399 567.427 6.29389 567.376 6.1802 567.331C4.37985 566.611 2.3368 567.486 1.61683 569.287C1.60975 569.305 1.60291 569.322 1.59609 569.34L1.16951 569.501L1.49878 569.633C1.01194 571.342 1.88711 573.176 3.57299 573.85C5.25897 574.525 7.15789 573.799 7.98362 572.226ZM976.858 851.676L842.954 902.301C842.615 901.94 842.193 901.646 841.702 901.45C840.016 900.776 838.118 901.501 837.292 903.074L704.747 850.071C705.047 849.017 704.829 847.916 704.223 847.068L837.907 796.516C838.17 797.575 838.921 798.497 840.012 798.933C841.698 799.608 843.597 798.882 844.423 797.309L976.968 850.313C976.839 850.766 976.805 851.228 976.858 851.676ZM703.699 846.486C703.404 846.224 703.06 846.008 702.672 845.853C700.986 845.179 699.088 845.904 698.262 847.477L565.724 794.476C566.056 793.311 565.754 792.087 564.994 791.212L698.815 740.608C698.998 741.796 699.786 742.858 700.982 743.336C702.668 744.01 704.567 743.285 705.393 741.712L837.938 794.716C837.838 795.067 837.795 795.423 837.806 795.774L703.699 846.486ZM698.782 739.84L564.387 790.661C564.163 790.501 563.916 790.365 563.649 790.258C561.963 789.584 560.064 790.309 559.239 791.883L426.693 738.879C427.059 737.596 426.657 736.242 425.72 735.362L559.756 684.677C559.831 685.997 560.651 687.219 561.959 687.742C563.645 688.416 565.544 687.691 566.37 686.117L698.908 739.119C698.84 739.358 698.798 739.6 698.782 739.84ZM425.015 734.848C424.888 734.779 424.757 734.716 424.619 734.661C422.933 733.987 421.034 734.712 420.209 736.286L287.663 683.282C288.062 681.881 287.546 680.395 286.418 679.534L420.723 628.747C420.667 630.19 421.511 631.578 422.929 632.145C424.615 632.819 426.514 632.094 427.339 630.52L559.884 683.524C559.851 683.642 559.824 683.76 559.803 683.879L425.015 734.848ZM420.842 627.922L285.593 679.066L285.589 679.064C283.903 678.39 282.004 679.115 281.178 680.689L147.739 627.327C148.103 626.05 147.706 624.703 146.779 623.822L280.796 573.144C280.878 574.456 281.696 575.667 282.998 576.187C284.684 576.861 286.582 576.136 287.408 574.563L420.842 627.922ZM147.547 514.934C148.252 515.802 148.523 516.983 148.202 518.109L281.194 571.292C282.02 569.718 283.919 568.993 285.605 569.667C285.942 569.802 286.247 569.984 286.515 570.201L420.734 519.447C420.738 519.144 420.781 518.839 420.867 518.537L287.875 465.354C287.049 466.928 285.15 467.653 283.464 466.978C282.305 466.515 281.529 465.503 281.316 464.36L147.547 514.934ZM983.229 849.267L1116.89 798.731C1116.74 798.138 1116.74 797.501 1116.91 796.88L984.367 743.876C983.541 745.45 981.643 746.175 979.957 745.501C979.026 745.129 978.343 744.403 977.999 743.541L844.429 794.05C844.832 794.824 844.946 795.745 844.694 796.631L977.239 849.635C978.065 848.062 979.963 847.336 981.649 848.011C982.313 848.276 982.85 848.721 983.229 849.267ZM421.126 627.249L287.679 573.885C287.993 572.785 287.741 571.632 287.073 570.771L420.806 520.2C421.036 521.317 421.804 522.3 422.942 522.755C424.628 523.429 426.527 522.703 427.352 521.13L560.799 574.494C560.775 574.58 560.754 574.666 560.736 574.753C560.716 574.848 560.701 574.944 560.69 575.039L426.122 625.925C425.94 625.809 425.744 625.708 425.536 625.625C423.85 624.951 421.951 625.676 421.126 627.249ZM977.8 742.836L844.014 793.426C843.653 792.992 843.181 792.638 842.619 792.414C840.933 791.739 839.035 792.465 838.209 794.038L705.664 741.034C705.947 740.04 705.769 739.004 705.24 738.179L838.866 687.649C839.163 688.639 839.892 689.49 840.927 689.904C842.613 690.578 844.511 689.853 845.337 688.279L977.882 741.283C977.735 741.801 977.712 742.331 977.8 742.836ZM704.757 737.581L838.729 686.92C838.697 686.513 838.735 686.096 838.852 685.686L706.314 632.685C705.488 634.258 703.589 634.983 701.903 634.309C700.759 633.852 699.988 632.859 699.763 631.734L566.02 682.308C566.699 683.171 566.956 684.332 566.641 685.44L699.179 738.441C700.005 736.867 701.903 736.142 703.589 736.816C704.04 736.997 704.433 737.26 704.757 737.581ZM699.696 630.979L565.458 681.741C565.194 681.53 564.896 681.354 564.566 681.222C562.88 680.548 560.981 681.273 560.156 682.846L427.611 629.843C427.958 628.623 427.612 627.34 426.772 626.46L560.685 575.821C560.818 577.073 561.623 578.212 562.873 578.712C564.559 579.386 566.458 578.661 567.284 577.088L699.829 630.092C699.745 630.386 699.702 630.684 699.696 630.979ZM288.146 464.676L421.138 517.859C421.964 516.286 423.863 515.561 425.549 516.235C426.062 516.44 426.499 516.752 426.847 517.136L560.711 466.515C560.65 466.051 560.68 465.57 560.815 465.098L427.822 411.915C426.996 413.488 425.098 414.213 423.412 413.539C422.418 413.142 421.707 412.342 421.389 411.403L287.781 461.916C288.265 462.725 288.418 463.721 288.146 464.676ZM1121.59 794.578C1122.42 794.91 1123.06 795.521 1123.43 796.261L1257 745.762C1256.69 745.045 1256.63 744.228 1256.85 743.438L1124.31 690.437C1123.49 692.01 1121.59 692.736 1119.9 692.062C1119.14 691.755 1118.54 691.207 1118.16 690.541L984.566 741.058C984.806 741.729 984.844 742.475 984.638 743.199L1117.18 796.203C1118.01 794.629 1119.91 793.904 1121.59 794.578ZM427.953 408.921C428.253 409.636 428.317 410.45 428.093 411.237L561.086 464.42C561.911 462.846 563.81 462.121 565.496 462.795C566.178 463.068 566.727 463.53 567.107 464.097L700.753 413.559C700.585 412.955 700.578 412.301 700.759 411.665L567.767 358.482C566.941 360.056 565.042 360.781 563.356 360.107C562.527 359.775 561.893 359.163 561.522 358.422L427.953 408.921ZM427.291 517.748L560.884 467.23C561.21 468.147 561.914 468.925 562.889 469.315C564.575 469.989 566.474 469.264 567.299 467.691L700.746 521.055C700.645 521.411 700.602 521.772 700.614 522.127L566.518 572.835C566.221 572.569 565.873 572.349 565.48 572.192C563.795 571.518 561.896 572.243 561.07 573.817L427.623 520.452C427.889 519.518 427.749 518.547 427.291 517.748ZM700.719 522.868L567.039 573.418C567.639 574.265 567.854 575.361 567.555 576.41L700.1 629.414C700.926 627.84 702.825 627.115 704.511 627.789C705.016 627.992 705.448 628.298 705.793 628.674L839.664 578.051C839.605 577.592 839.636 577.116 839.769 576.65L707.231 523.648C706.405 525.222 704.506 525.947 702.82 525.273C701.734 524.838 700.984 523.922 700.719 522.868ZM706.585 632.007C706.853 631.066 706.708 630.087 706.242 629.284L839.833 578.767C840.157 579.691 840.863 580.475 841.844 580.867C843.53 581.541 845.428 580.816 846.254 579.243L978.799 632.247C978.635 632.824 978.626 633.415 978.751 633.971L845.038 684.535C844.664 684.037 844.154 683.632 843.534 683.384C841.848 682.71 839.949 683.435 839.123 685.008L706.585 632.007ZM845.417 685.171C845.76 685.913 845.844 686.772 845.608 687.602L978.153 740.605C978.979 739.032 980.878 738.307 982.564 738.981C983.291 739.272 983.867 739.778 984.248 740.397L1117.86 689.871C1117.66 689.23 1117.63 688.527 1117.83 687.844L985.284 634.84C984.458 636.413 982.56 637.139 980.874 636.464C980.001 636.115 979.346 635.456 978.984 634.664L845.417 685.171ZM1263.56 743.28L1397.16 692.768C1396.68 691.958 1396.52 690.962 1396.8 690.006L1264.26 637.005C1263.43 638.578 1261.53 639.303 1259.85 638.629C1259.24 638.388 1258.74 637.998 1258.37 637.518L1124.65 688.087C1124.76 688.628 1124.74 689.2 1124.59 689.759L1257.12 742.761C1257.95 741.187 1259.85 740.462 1261.53 741.136C1262.53 741.534 1263.24 742.337 1263.56 743.28ZM848.627 251.998C847.801 253.571 845.903 254.297 844.217 253.622C843.481 253.328 842.901 252.814 842.519 252.185L708.514 302.849C708.637 303.403 708.627 303.991 708.463 304.564L841.462 357.75C842.288 356.177 844.187 355.451 845.873 356.126C846.759 356.48 847.42 357.154 847.779 357.962L981.692 307.323C981.451 306.652 981.413 305.905 981.619 305.181L848.627 251.998ZM1678.18 586.52C1677.58 585.673 1677.36 584.575 1677.66 583.524L1545.12 530.52C1544.29 532.094 1542.39 532.819 1540.71 532.145C1540.2 531.94 1539.76 531.628 1539.41 531.245L1405.09 582.039C1405.1 582.386 1405.05 582.739 1404.96 583.087L1537.5 636.091C1538.33 634.517 1540.22 633.792 1541.91 634.466C1543.12 634.948 1543.91 636.023 1544.08 637.221L1678.18 586.52ZM1538.63 527.927L1406.09 474.923C1405.26 476.497 1403.36 477.222 1401.68 476.548C1401.06 476.299 1400.55 475.893 1400.17 475.393L1266.04 526.115C1266.1 526.566 1266.06 527.034 1265.93 527.492L1398.47 580.493C1399.3 578.92 1401.19 578.195 1402.88 578.869C1403.98 579.307 1404.73 580.233 1404.99 581.296L1538.97 530.633C1538.51 529.834 1538.37 528.861 1538.63 527.927ZM1399.79 474.756C1399.45 474.016 1399.37 473.158 1399.6 472.33L1267.07 419.329C1266.24 420.902 1264.34 421.627 1262.66 420.953C1261.92 420.66 1261.34 420.147 1260.96 419.52L1126.96 470.193C1127.08 470.743 1127.06 471.326 1126.9 471.895L1259.45 524.899C1260.27 523.326 1262.17 522.6 1263.86 523.275C1264.85 523.67 1265.56 524.463 1265.88 525.397L1399.79 474.756ZM1260.58 416.735L1128.04 363.732C1127.21 365.305 1125.31 366.03 1123.63 365.356C1122.79 365.021 1122.15 364.398 1121.78 363.646L987.845 414.293C988.044 414.928 988.064 415.623 987.872 416.298L1120.42 469.302C1121.24 467.729 1123.14 467.003 1124.83 467.678C1125.71 468.03 1126.37 468.698 1126.73 469.499L1260.65 418.858C1260.41 418.192 1260.38 417.453 1260.58 416.735ZM987.556 413.622L1121.53 362.961C1121.38 362.377 1121.38 361.75 1121.55 361.138L988.104 307.774C987.279 309.347 985.38 310.073 983.694 309.398C982.967 309.108 982.391 308.602 982.01 307.983L848.004 358.657C848.12 359.202 848.108 359.779 847.947 360.343L981.387 413.705C982.213 412.131 984.112 411.406 985.798 412.08C986.573 412.39 987.177 412.946 987.556 413.622ZM703.782 306.867C702.999 306.554 702.391 305.991 702.013 305.307L568.055 355.952C568.211 356.545 568.215 357.183 568.038 357.805L701.03 410.987C701.856 409.414 703.755 408.689 705.441 409.363C706.284 409.7 706.925 410.328 707.294 411.086L841.221 360.442C841.019 359.804 840.998 359.106 841.191 358.428L708.192 305.242C707.366 306.816 705.468 307.541 703.782 306.867ZM1537.23 636.768L1404.68 583.764C1403.86 585.338 1401.96 586.063 1400.27 585.389C1399.72 585.166 1399.25 584.815 1398.89 584.384L1264.66 635.143C1264.68 635.534 1264.64 635.934 1264.53 636.327L1397.07 689.328C1397.89 687.755 1399.79 687.029 1401.48 687.704C1402.64 688.167 1403.41 689.18 1403.63 690.324L1537.67 639.646C1537.13 638.817 1536.94 637.771 1537.23 636.768ZM1257.98 636.885L1124.42 687.391C1124.07 686.577 1123.4 685.898 1122.51 685.542C1120.82 684.868 1118.93 685.593 1118.1 687.166L985.555 634.162C985.745 633.497 985.728 632.813 985.537 632.186L1119.16 581.657C1119.54 582.257 1120.11 582.748 1120.82 583.032C1122.5 583.706 1124.4 582.981 1125.23 581.407L1257.77 634.411C1257.53 635.257 1257.63 636.134 1257.98 636.885ZM985.254 631.513L1118.83 581C1118.58 580.318 1118.53 579.554 1118.74 578.814L986.199 525.81C985.373 527.384 983.474 528.109 981.788 527.435C980.968 527.107 980.34 526.505 979.967 525.776L846.399 576.284C846.687 576.991 846.746 577.791 846.525 578.565L979.07 631.569C979.896 629.996 981.795 629.27 983.481 629.945C984.266 630.259 984.876 630.825 985.254 631.513ZM979.703 525.096L846.052 575.635C845.672 575.075 845.127 574.618 844.451 574.347C842.765 573.673 840.866 574.398 840.04 575.972L707.502 522.971C707.753 522.089 707.642 521.173 707.243 520.401L840.812 469.893C841.157 470.75 841.839 471.47 842.765 471.84C844.451 472.515 846.349 471.789 847.175 470.216L979.714 523.217C979.534 523.848 979.54 524.495 979.703 525.096ZM706.831 519.776L840.61 469.189C840.52 468.679 840.541 468.145 840.69 467.623L707.244 414.258C706.418 415.832 704.519 416.557 702.833 415.883C702.019 415.557 701.394 414.961 701.02 414.239L567.451 464.747C567.733 465.45 567.79 466.244 567.571 467.013L701.017 520.377C701.843 518.804 703.742 518.079 705.428 518.753C705.994 518.979 706.469 519.337 706.831 519.776ZM707.543 411.772L841.512 361.112C841.891 361.784 842.493 362.336 843.266 362.645C844.952 363.32 846.851 362.594 847.676 361.021L981.116 414.382C980.954 414.949 980.943 415.53 981.061 416.078L847.063 466.748C846.682 466.124 846.103 465.613 845.372 465.32C843.686 464.646 841.787 465.371 840.961 466.945L707.515 413.581C707.688 412.974 707.689 412.352 707.543 411.772ZM981.288 416.772L847.378 467.409C847.615 468.077 847.651 468.819 847.446 469.538L979.985 522.539C980.81 520.966 982.709 520.241 984.395 520.915C985.234 521.25 985.871 521.872 986.241 522.623L1120.17 471.979C1119.97 471.345 1119.95 470.653 1120.15 469.98L987.601 416.976C986.775 418.549 984.876 419.274 983.19 418.6C982.308 418.247 981.647 417.576 981.288 416.772ZM986.494 523.308L1120.46 472.65C1120.84 473.329 1121.44 473.886 1122.22 474.197C1123.91 474.872 1125.81 474.146 1126.63 472.573L1259.18 525.577C1258.95 526.359 1259.02 527.168 1259.31 527.879L1125.4 578.517C1125.06 577.634 1124.37 576.89 1123.43 576.512C1121.74 575.838 1119.84 576.563 1119.01 578.136L986.47 525.133C986.644 524.521 986.644 523.893 986.494 523.308ZM1259.66 528.526L1125.59 579.225C1125.67 579.716 1125.64 580.228 1125.5 580.73L1258.04 633.734C1258.87 632.16 1260.77 631.435 1262.46 632.109C1263.51 632.529 1264.24 633.4 1264.53 634.41L1398.47 583.762C1398.06 582.985 1397.95 582.061 1398.2 581.171L1265.66 528.17C1264.84 529.743 1262.94 530.469 1261.25 529.794C1260.58 529.527 1260.04 529.078 1259.66 528.526Z" fill="url(#paint0_linear_299_7749)"/>
<path fill-rule="evenodd" clip-rule="evenodd" d="M141.254 624.734C142.08 623.16 143.979 622.435 145.664 623.109C145.808 623.167 145.947 623.233 146.078 623.307L280.838 572.348C280.85 572.272 280.866 572.196 280.884 572.12C280.896 572.07 280.909 572.02 280.923 571.969L147.931 518.787C147.105 520.36 145.206 521.085 143.52 520.411C142.193 519.881 141.369 518.632 141.315 517.291L7.23037 567.984C8.20323 568.863 8.62663 570.242 8.25464 571.548L141.254 624.734ZM7.98362 572.226L140.983 625.411C140.496 627.12 141.371 628.955 143.057 629.629C144.743 630.303 146.642 629.578 147.468 628.005L280.907 681.366C280.421 683.075 281.296 684.91 282.982 685.584C284.668 686.258 286.567 685.533 287.392 683.96L419.938 736.963C419.451 738.672 420.326 740.507 422.012 741.181C423.698 741.855 425.597 741.13 426.422 739.557L558.968 792.561C558.481 794.27 559.356 796.104 561.042 796.778C562.728 797.452 564.627 796.727 565.453 795.154L697.991 848.155C697.504 849.864 698.379 851.698 700.065 852.373C701.751 853.047 703.65 852.322 704.476 850.748L837.021 903.752C836.534 905.461 837.409 907.296 839.095 907.97C840.896 908.69 842.939 907.814 843.659 906.014C844.081 904.957 843.954 903.816 843.413 902.909L977.02 852.395C977.338 853.334 978.049 854.133 979.042 854.53C980.843 855.25 982.886 854.375 983.606 852.574C983.962 851.683 983.928 850.733 983.584 849.913L1117.15 799.414C1117.52 800.154 1118.16 800.766 1118.99 801.098C1120.79 801.818 1122.83 800.942 1123.55 799.142C1123.84 798.414 1123.87 797.647 1123.69 796.944L1257.35 746.407C1257.73 746.95 1258.27 747.392 1258.93 747.656C1260.73 748.376 1262.77 747.5 1263.49 745.7C1263.71 745.141 1263.78 744.558 1263.72 744L1397.62 693.374C1397.96 693.734 1398.38 694.028 1398.87 694.223C1400.67 694.943 1402.71 694.068 1403.43 692.267C1403.59 691.878 1403.67 691.478 1403.68 691.082L1538.16 640.241C1538.48 640.553 1538.86 640.809 1539.3 640.986C1541.1 641.706 1543.15 640.83 1543.87 639.03C1544 638.688 1544.08 638.338 1544.11 637.99L1678.7 587.102C1679 587.367 1679.35 587.586 1679.74 587.742C1681.54 588.462 1683.58 587.586 1684.3 585.786C1685.02 583.985 1684.15 581.942 1682.35 581.222C1680.66 580.548 1678.76 581.273 1677.94 582.846L1545.39 529.843C1545.88 528.134 1545 526.299 1543.32 525.625C1541.63 524.951 1539.73 525.676 1538.91 527.249L1406.36 474.245C1406.85 472.537 1405.97 470.702 1404.29 470.028C1402.6 469.354 1400.7 470.079 1399.88 471.652L1267.34 418.651C1267.82 416.942 1266.95 415.108 1265.26 414.433C1263.58 413.759 1261.68 414.484 1260.85 416.058L1128.31 363.054C1128.79 361.345 1127.92 359.51 1126.23 358.836C1124.55 358.162 1122.65 358.887 1121.82 360.461L988.376 307.096C988.862 305.387 987.987 303.553 986.301 302.879C984.615 302.204 982.716 302.93 981.89 304.503L848.898 251.32C849.385 249.611 848.51 247.777 846.824 247.103C845.023 246.383 842.98 247.259 842.26 249.059C841.932 249.881 841.936 250.753 842.208 251.527L708.284 302.16C707.924 301.363 707.266 300.698 706.389 300.347C704.588 299.627 702.545 300.503 701.825 302.303C701.515 303.078 701.501 303.899 701.729 304.639L567.799 355.274C567.428 354.533 566.794 353.919 565.963 353.587C564.163 352.867 562.12 353.743 561.4 355.543C561.108 356.272 561.078 357.04 561.265 357.744L427.601 408.279C427.222 407.731 426.684 407.285 426.019 407.019C424.218 406.299 422.175 407.175 421.455 408.976C421.23 409.539 421.161 410.126 421.228 410.689L287.327 461.313C286.986 460.951 286.564 460.655 286.072 460.459C284.271 459.739 282.228 460.615 281.508 462.415C281.352 462.806 281.271 463.209 281.258 463.608L146.976 514.376C146.723 514.18 146.439 514.016 146.127 513.891C144.327 513.171 142.284 514.047 141.564 515.848C141.479 516.06 141.416 516.277 141.374 516.494L6.51019 567.482C6.40399 567.427 6.29389 567.376 6.1802 567.331C4.37985 566.611 2.3368 567.486 1.61683 569.287C1.60975 569.305 1.60291 569.322 1.59609 569.34L1.16951 569.501L1.49878 569.633C1.01194 571.342 1.88711 573.176 3.57299 573.85C5.25897 574.525 7.15789 573.799 7.98362 572.226ZM976.858 851.676L842.954 902.301C842.615 901.94 842.193 901.646 841.702 901.45C840.016 900.776 838.118 901.501 837.292 903.074L704.747 850.071C705.047 849.017 704.829 847.916 704.223 847.068L837.907 796.516C838.17 797.575 838.921 798.497 840.012 798.933C841.698 799.608 843.597 798.882 844.423 797.309L976.968 850.313C976.839 850.766 976.805 851.228 976.858 851.676ZM703.699 846.486C703.404 846.224 703.06 846.008 702.672 845.853C700.986 845.179 699.088 845.904 698.262 847.477L565.724 794.476C566.056 793.311 565.754 792.087 564.994 791.212L698.815 740.608C698.998 741.796 699.786 742.858 700.982 743.336C702.668 744.01 704.567 743.285 705.393 741.712L837.938 794.716C837.838 795.067 837.795 795.423 837.806 795.774L703.699 846.486ZM698.782 739.84L564.387 790.661C564.163 790.501 563.916 790.365 563.649 790.258C561.963 789.584 560.064 790.309 559.239 791.883L426.693 738.879C427.059 737.596 426.657 736.242 425.72 735.362L559.756 684.677C559.831 685.997 560.651 687.219 561.959 687.742C563.645 688.416 565.544 687.691 566.37 686.117L698.908 739.119C698.84 739.358 698.798 739.6 698.782 739.84ZM425.015 734.848C424.888 734.779 424.757 734.716 424.619 734.661C422.933 733.987 421.034 734.712 420.209 736.286L287.663 683.282C288.062 681.881 287.546 680.395 286.418 679.534L420.723 628.747C420.667 630.19 421.511 631.578 422.929 632.145C424.615 632.819 426.514 632.094 427.339 630.52L559.884 683.524C559.851 683.642 559.824 683.76 559.803 683.879L425.015 734.848ZM420.842 627.922L285.593 679.066L285.589 679.064C283.903 678.39 282.004 679.115 281.178 680.689L147.739 627.327C148.103 626.05 147.706 624.703 146.779 623.822L280.796 573.144C280.878 574.456 281.696 575.667 282.998 576.187C284.684 576.861 286.582 576.136 287.408 574.563L420.842 627.922ZM147.547 514.934C148.252 515.802 148.523 516.983 148.202 518.109L281.194 571.292C282.02 569.718 283.919 568.993 285.605 569.667C285.942 569.802 286.247 569.984 286.515 570.201L420.734 519.447C420.738 519.144 420.781 518.839 420.867 518.537L287.875 465.354C287.049 466.928 285.15 467.653 283.464 466.978C282.305 466.515 281.529 465.503 281.316 464.36L147.547 514.934ZM983.229 849.267L1116.89 798.731C1116.74 798.138 1116.74 797.501 1116.91 796.88L984.367 743.876C983.541 745.45 981.643 746.175 979.957 745.501C979.026 745.129 978.343 744.403 977.999 743.541L844.429 794.05C844.832 794.824 844.946 795.745 844.694 796.631L977.239 849.635C978.065 848.062 979.963 847.336 981.649 848.011C982.313 848.276 982.85 848.721 983.229 849.267ZM421.126 627.249L287.679 573.885C287.993 572.785 287.741 571.632 287.073 570.771L420.806 520.2C421.036 521.317 421.804 522.3 422.942 522.755C424.628 523.429 426.527 522.703 427.352 521.13L560.799 574.494C560.775 574.58 560.754 574.666 560.736 574.753C560.716 574.848 560.701 574.944 560.69 575.039L426.122 625.925C425.94 625.809 425.744 625.708 425.536 625.625C423.85 624.951 421.951 625.676 421.126 627.249ZM977.8 742.836L844.014 793.426C843.653 792.992 843.181 792.638 842.619 792.414C840.933 791.739 839.035 792.465 838.209 794.038L705.664 741.034C705.947 740.04 705.769 739.004 705.24 738.179L838.866 687.649C839.163 688.639 839.892 689.49 840.927 689.904C842.613 690.578 844.511 689.853 845.337 688.279L977.882 741.283C977.735 741.801 977.712 742.331 977.8 742.836ZM704.757 737.581L838.729 686.92C838.697 686.513 838.735 686.096 838.852 685.686L706.314 632.685C705.488 634.258 703.589 634.983 701.903 634.309C700.759 633.852 699.988 632.859 699.763 631.734L566.02 682.308C566.699 683.171 566.956 684.332 566.641 685.44L699.179 738.441C700.005 736.867 701.903 736.142 703.589 736.816C704.04 736.997 704.433 737.26 704.757 737.581ZM699.696 630.979L565.458 681.741C565.194 681.53 564.896 681.354 564.566 681.222C562.88 680.548 560.981 681.273 560.156 682.846L427.611 629.843C427.958 628.623 427.612 627.34 426.772 626.46L560.685 575.821C560.818 577.073 561.623 578.212 562.873 578.712C564.559 579.386 566.458 578.661 567.284 577.088L699.829 630.092C699.745 630.386 699.702 630.684 699.696 630.979ZM288.146 464.676L421.138 517.859C421.964 516.286 423.863 515.561 425.549 516.235C426.062 516.44 426.499 516.752 426.847 517.136L560.711 466.515C560.65 466.051 560.68 465.57 560.815 465.098L427.822 411.915C426.996 413.488 425.098 414.213 423.412 413.539C422.418 413.142 421.707 412.342 421.389 411.403L287.781 461.916C288.265 462.725 288.418 463.721 288.146 464.676ZM1121.59 794.578C1122.42 794.91 1123.06 795.521 1123.43 796.261L1257 745.762C1256.69 745.045 1256.63 744.228 1256.85 743.438L1124.31 690.437C1123.49 692.01 1121.59 692.736 1119.9 692.062C1119.14 691.755 1118.54 691.207 1118.16 690.541L984.566 741.058C984.806 741.729 984.844 742.475 984.638 743.199L1117.18 796.203C1118.01 794.629 1119.91 793.904 1121.59 794.578ZM427.953 408.921C428.253 409.636 428.317 410.45 428.093 411.237L561.086 464.42C561.911 462.846 563.81 462.121 565.496 462.795C566.178 463.068 566.727 463.53 567.107 464.097L700.753 413.559C700.585 412.955 700.578 412.301 700.759 411.665L567.767 358.482C566.941 360.056 565.042 360.781 563.356 360.107C562.527 359.775 561.893 359.163 561.522 358.422L427.953 408.921ZM427.291 517.748L560.884 467.23C561.21 468.147 561.914 468.925 562.889 469.315C564.575 469.989 566.474 469.264 567.299 467.691L700.746 521.055C700.645 521.411 700.602 521.772 700.614 522.127L566.518 572.835C566.221 572.569 565.873 572.349 565.48 572.192C563.795 571.518 561.896 572.243 561.07 573.817L427.623 520.452C427.889 519.518 427.749 518.547 427.291 517.748ZM700.719 522.868L567.039 573.418C567.639 574.265 567.854 575.361 567.555 576.41L700.1 629.414C700.926 627.84 702.825 627.115 704.511 627.789C705.016 627.992 705.448 628.298 705.793 628.674L839.664 578.051C839.605 577.592 839.636 577.116 839.769 576.65L707.231 523.648C706.405 525.222 704.506 525.947 702.82 525.273C701.734 524.838 700.984 523.922 700.719 522.868ZM706.585 632.007C706.853 631.066 706.708 630.087 706.242 629.284L839.833 578.767C840.157 579.691 840.863 580.475 841.844 580.867C843.53 581.541 845.428 580.816 846.254 579.243L978.799 632.247C978.635 632.824 978.626 633.415 978.751 633.971L845.038 684.535C844.664 684.037 844.154 683.632 843.534 683.384C841.848 682.71 839.949 683.435 839.123 685.008L706.585 632.007ZM845.417 685.171C845.76 685.913 845.844 686.772 845.608 687.602L978.153 740.605C978.979 739.032 980.878 738.307 982.564 738.981C983.291 739.272 983.867 739.778 984.248 740.397L1117.86 689.871C1117.66 689.23 1117.63 688.527 1117.83 687.844L985.284 634.84C984.458 636.413 982.56 637.139 980.874 636.464C980.001 636.115 979.346 635.456 978.984 634.664L845.417 685.171ZM1263.56 743.28L1397.16 692.768C1396.68 691.958 1396.52 690.962 1396.8 690.006L1264.26 637.005C1263.43 638.578 1261.53 639.303 1259.85 638.629C1259.24 638.388 1258.74 637.998 1258.37 637.518L1124.65 688.087C1124.76 688.628 1124.74 689.2 1124.59 689.759L1257.12 742.761C1257.95 741.187 1259.85 740.462 1261.53 741.136C1262.53 741.534 1263.24 742.337 1263.56 743.28ZM848.627 251.998C847.801 253.571 845.903 254.297 844.217 253.622C843.481 253.328 842.901 252.814 842.519 252.185L708.514 302.849C708.637 303.403 708.627 303.991 708.463 304.564L841.462 357.75C842.288 356.177 844.187 355.451 845.873 356.126C846.759 356.48 847.42 357.154 847.779 357.962L981.692 307.323C981.451 306.652 981.413 305.905 981.619 305.181L848.627 251.998ZM1678.18 586.52C1677.58 585.673 1677.36 584.575 1677.66 583.524L1545.12 530.52C1544.29 532.094 1542.39 532.819 1540.71 532.145C1540.2 531.94 1539.76 531.628 1539.41 531.245L1405.09 582.039C1405.1 582.386 1405.05 582.739 1404.96 583.087L1537.5 636.091C1538.33 634.517 1540.22 633.792 1541.91 634.466C1543.12 634.948 1543.91 636.023 1544.08 637.221L1678.18 586.52ZM1538.63 527.927L1406.09 474.923C1405.26 476.497 1403.36 477.222 1401.68 476.548C1401.06 476.299 1400.55 475.893 1400.17 475.393L1266.04 526.115C1266.1 526.566 1266.06 527.034 1265.93 527.492L1398.47 580.493C1399.3 578.92 1401.19 578.195 1402.88 578.869C1403.98 579.307 1404.73 580.233 1404.99 581.296L1538.97 530.633C1538.51 529.834 1538.37 528.861 1538.63 527.927ZM1399.79 474.756C1399.45 474.016 1399.37 473.158 1399.6 472.33L1267.07 419.329C1266.24 420.902 1264.34 421.627 1262.66 420.953C1261.92 420.66 1261.34 420.147 1260.96 419.52L1126.96 470.193C1127.08 470.743 1127.06 471.326 1126.9 471.895L1259.45 524.899C1260.27 523.326 1262.17 522.6 1263.86 523.275C1264.85 523.67 1265.56 524.463 1265.88 525.397L1399.79 474.756ZM1260.58 416.735L1128.04 363.732C1127.21 365.305 1125.31 366.03 1123.63 365.356C1122.79 365.021 1122.15 364.398 1121.78 363.646L987.845 414.293C988.044 414.928 988.064 415.623 987.872 416.298L1120.42 469.302C1121.24 467.729 1123.14 467.003 1124.83 467.678C1125.71 468.03 1126.37 468.698 1126.73 469.499L1260.65 418.858C1260.41 418.192 1260.38 417.453 1260.58 416.735ZM987.556 413.622L1121.53 362.961C1121.38 362.377 1121.38 361.75 1121.55 361.138L988.104 307.774C987.279 309.347 985.38 310.073 983.694 309.398C982.967 309.108 982.391 308.602 982.01 307.983L848.004 358.657C848.12 359.202 848.108 359.779 847.947 360.343L981.387 413.705C982.213 412.131 984.112 411.406 985.798 412.08C986.573 412.39 987.177 412.946 987.556 413.622ZM703.782 306.867C702.999 306.554 702.391 305.991 702.013 305.307L568.055 355.952C568.211 356.545 568.215 357.183 568.038 357.805L701.03 410.987C701.856 409.414 703.755 408.689 705.441 409.363C706.284 409.7 706.925 410.328 707.294 411.086L841.221 360.442C841.019 359.804 840.998 359.106 841.191 358.428L708.192 305.242C707.366 306.816 705.468 307.541 703.782 306.867ZM1537.23 636.768L1404.68 583.764C1403.86 585.338 1401.96 586.063 1400.27 585.389C1399.72 585.166 1399.25 584.815 1398.89 584.384L1264.66 635.143C1264.68 635.534 1264.64 635.934 1264.53 636.327L1397.07 689.328C1397.89 687.755 1399.79 687.029 1401.48 687.704C1402.64 688.167 1403.41 689.18 1403.63 690.324L1537.67 639.646C1537.13 638.817 1536.94 637.771 1537.23 636.768ZM1257.98 636.885L1124.42 687.391C1124.07 686.577 1123.4 685.898 1122.51 685.542C1120.82 684.868 1118.93 685.593 1118.1 687.166L985.555 634.162C985.745 633.497 985.728 632.813 985.537 632.186L1119.16 581.657C1119.54 582.257 1120.11 582.748 1120.82 583.032C1122.5 583.706 1124.4 582.981 1125.23 581.407L1257.77 634.411C1257.53 635.257 1257.63 636.134 1257.98 636.885ZM985.254 631.513L1118.83 581C1118.58 580.318 1118.53 579.554 1118.74 578.814L986.199 525.81C985.373 527.384 983.474 528.109 981.788 527.435C980.968 527.107 980.34 526.505 979.967 525.776L846.399 576.284C846.687 576.991 846.746 577.791 846.525 578.565L979.07 631.569C979.896 629.996 981.795 629.27 983.481 629.945C984.266 630.259 984.876 630.825 985.254 631.513ZM979.703 525.096L846.052 575.635C845.672 575.075 845.127 574.618 844.451 574.347C842.765 573.673 840.866 574.398 840.04 575.972L707.502 522.971C707.753 522.089 707.642 521.173 707.243 520.401L840.812 469.893C841.157 470.75 841.839 471.47 842.765 471.84C844.451 472.515 846.349 471.789 847.175 470.216L979.714 523.217C979.534 523.848 979.54 524.495 979.703 525.096ZM706.831 519.776L840.61 469.189C840.52 468.679 840.541 468.145 840.69 467.623L707.244 414.258C706.418 415.832 704.519 416.557 702.833 415.883C702.019 415.557 701.394 414.961 701.02 414.239L567.451 464.747C567.733 465.45 567.79 466.244 567.571 467.013L701.017 520.377C701.843 518.804 703.742 518.079 705.428 518.753C705.994 518.979 706.469 519.337 706.831 519.776ZM707.543 411.772L841.512 361.112C841.891 361.784 842.493 362.336 843.266 362.645C844.952 363.32 846.851 362.594 847.676 361.021L981.116 414.382C980.954 414.949 980.943 415.53 981.061 416.078L847.063 466.748C846.682 466.124 846.103 465.613 845.372 465.32C843.686 464.646 841.787 465.371 840.961 466.945L707.515 413.581C707.688 412.974 707.689 412.352 707.543 411.772ZM981.288 416.772L847.378 467.409C847.615 468.077 847.651 468.819 847.446 469.538L979.985 522.539C980.81 520.966 982.709 520.241 984.395 520.915C985.234 521.25 985.871 521.872 986.241 522.623L1120.17 471.979C1119.97 471.345 1119.95 470.653 1120.15 469.98L987.601 416.976C986.775 418.549 984.876 419.274 983.19 418.6C982.308 418.247 981.647 417.576 981.288 416.772ZM986.494 523.308L1120.46 472.65C1120.84 473.329 1121.44 473.886 1122.22 474.197C1123.91 474.872 1125.81 474.146 1126.63 472.573L1259.18 525.577C1258.95 526.359 1259.02 527.168 1259.31 527.879L1125.4 578.517C1125.06 577.634 1124.37 576.89 1123.43 576.512C1121.74 575.838 1119.84 576.563 1119.01 578.136L986.47 525.133C986.644 524.521 986.644 523.893 986.494 523.308ZM1259.66 528.526L1125.59 579.225C1125.67 579.716 1125.64 580.228 1125.5 580.73L1258.04 633.734C1258.87 632.16 1260.77 631.435 1262.46 632.109C1263.51 632.529 1264.24 633.4 1264.53 634.41L1398.47 583.762C1398.06 582.985 1397.95 582.061 1398.2 581.171L1265.66 528.17C1264.84 529.743 1262.94 530.469 1261.25 529.794C1260.58 529.527 1260.04 529.078 1259.66 528.526Z" fill="url(#paint1_linear_299_7749)"/>
<path d="M840.438 562.582L940.59 461.914C956.221 446.203 964.904 420.599 963.168 393.832C962.01 371.72 953.905 339.134 922.644 307.711L913.96 298.983L764.601 448.53L764.022 447.948C723.498 400.233 742.023 358.336 764.601 331.569C788.915 303.056 886.172 207.043 901.803 193.078L902.382 192.496L902.961 193.66C912.223 211.698 908.75 233.229 894.277 247.776L792.967 349.026C788.336 353.681 786.02 360.082 786.02 366.483C786.02 372.884 788.336 378.703 792.388 383.358L911.065 264.069C937.695 237.302 938.853 194.242 912.802 166.31L905.276 157.582L896.593 165.147C896.014 166.31 780.81 275.707 746.654 316.44C703.236 367.065 706.709 424.673 755.917 474.716L764.601 483.444L913.96 333.315L914.539 333.897C933.643 357.173 938.853 379.867 939.432 394.996C940.59 415.362 934.222 434.565 923.802 445.039L841.596 527.668L841.017 526.504C831.754 509.048 834.649 486.935 848.543 472.97L880.383 440.966C885.014 436.31 887.33 429.91 887.33 423.509C887.33 417.108 885.014 411.289 880.383 406.634L831.176 456.095C804.546 483.444 804.546 527.086 831.176 553.854L840.438 562.582Z" fill="url(#paint2_linear_299_7749)"/>
<path d="M840.438 562.582L940.59 461.914C956.221 446.203 964.904 420.599 963.168 393.832C962.01 371.72 953.905 339.134 922.644 307.711L913.96 298.983L764.601 448.53L764.022 447.948C723.498 400.233 742.023 358.336 764.601 331.569C788.915 303.056 886.172 207.043 901.803 193.078L902.382 192.496L902.961 193.66C912.223 211.698 908.75 233.229 894.277 247.776L792.967 349.026C788.336 353.681 786.02 360.082 786.02 366.483C786.02 372.884 788.336 378.703 792.388 383.358L911.065 264.069C937.695 237.302 938.853 194.242 912.802 166.31L905.276 157.582L896.593 165.147C896.014 166.31 780.81 275.707 746.654 316.44C703.236 367.065 706.709 424.673 755.917 474.716L764.601 483.444L913.96 333.315L914.539 333.897C933.643 357.173 938.853 379.867 939.432 394.996C940.59 415.362 934.222 434.565 923.802 445.039L841.596 527.668L841.017 526.504C831.754 509.048 834.649 486.935 848.543 472.97L880.383 440.966C885.014 436.31 887.33 429.91 887.33 423.509C887.33 417.108 885.014 411.289 880.383 406.634L831.176 456.095C804.546 483.444 804.546 527.086 831.176 553.854L840.438 562.582Z" fill="url(#paint3_linear_299_7749)" fill-opacity="0.2"/>
<defs>
<linearGradient id="paint0_linear_299_7749" x1="1260.42" y1="1062.81" x2="1450.24" y2="329.036" gradientUnits="userSpaceOnUse">
<stop offset="0.24" stop-color="#9052D1"/>
<stop offset="0.91" stop-color="#50B0F9"/>
</linearGradient>
<linearGradient id="paint1_linear_299_7749" x1="293.387" y1="830.111" x2="1081.39" y2="830.111" gradientUnits="userSpaceOnUse">
<stop/>
<stop offset="1" stop-opacity="0"/>
</linearGradient>
<linearGradient id="paint2_linear_299_7749" x1="750.466" y1="165.905" x2="959.033" y2="556.516" gradientUnits="userSpaceOnUse">
<stop offset="0.24" stop-color="#9052D1"/>
<stop offset="0.91" stop-color="#50B0F9"/>
</linearGradient>
<linearGradient id="paint3_linear_299_7749" x1="1037.39" y1="310.733" x2="149.387" y2="310.733" gradientUnits="userSpaceOnUse">
<stop stop-opacity="0"/>
<stop offset="1"/>
</linearGradient>
</defs>
</svg>
